<?xml version="1.0"?>
<svg xmlns="http://www.w3.org/2000/svg" xmlns:xlink="http://www.w3.org/1999/xlink" version="1.1" id="Capa_1" x="0px" y="0px" viewBox="0 0 397.604 397.604" style="enable-background:new 0 0 397.604 397.604;" xml:space="preserve" width="512px" height="512px" class=""><g><g>
	<path style="fill:#17A2B8" d="M330.982,123.318l-22.465,236.669c-2.154,21.437-20.251,37.724-41.796,37.616H135.063   c-21.076-0.36-38.674-16.176-41.273-37.094L66.623,123.318H330.982z" data-original="#00EFD1" class="" data-old_color="#00EFD1"/>
	<path style="fill:#000000" d="M369.121,47.041H261.496V29.8c0.588-15.859-11.791-29.192-27.65-29.78   c-0.71-0.026-1.42-0.026-2.129,0h-65.829c-15.859-0.588-29.192,11.791-29.78,27.65c-0.026,0.71-0.026,1.42,0,2.129v17.241H28.484   c-5.771,0-10.449,4.678-10.449,10.449s4.678,10.449,10.449,10.449h340.637c5.771,0,10.449-4.678,10.449-10.449   S374.891,47.041,369.121,47.041z M157.006,47.041V29.8c-0.622-4.283,2.346-8.26,6.629-8.882c0.747-0.108,1.506-0.108,2.253,0   h65.829c4.283-0.622,8.26,2.346,8.882,6.629c0.108,0.747,0.108,1.506,0,2.253v17.241H157.006z" data-original="#00ACEA" class="active-path" data-old_color="#00ACEA"/>
</g></g> </svg>
